<svg width="60" height="57" viewBox="0 0 60 57" fill="none" xmlns="http://www.w3.org/2000/svg">
<path d="M35.3449 45.9677H34.8865V3.67742H35.3449V45.9677Z" fill="#2A2A2A"/>
<path d="M48.1794 35.625C48.1794 34.7364 47.4611 34.0161 46.5751 34.0161C45.689 34.0161 44.9708 34.7364 44.9708 35.625C44.9708 36.5136 45.689 37.2339 46.5751 37.2339C47.4611 37.2339 48.1794 36.5136 48.1794 35.625Z" fill="#2A2A2A"/>
<path d="M14.3667 31.5133C15.2002 28.9821 13.8297 26.2525 11.3057 25.4167C8.78162 24.5808 6.05981 25.9552 5.22633 28.4864C4.39285 31.0176 5.76333 33.7472 8.28737 34.5831C10.8114 35.4189 13.5332 34.0445 14.3667 31.5133Z" fill="#2A2A2A"/>
<path d="M24.8023 11.7218C24.8023 10.3255 25.9311 9.19355 27.3234 9.19355C28.7157 9.19355 29.8444 10.3255 29.8444 11.7218C29.8444 13.1181 28.7157 14.25 27.3234 14.25C25.9311 14.25 24.8023 13.1181 24.8023 11.7218Z" fill="#2A2A2A"/>
<path d="M41.7621 3.44758C41.7621 1.54353 40.223 0 38.3243 0C36.4257 0 34.8865 1.54353 34.8865 3.44758C34.8865 5.35163 36.4257 6.89516 38.3243 6.89516C40.223 6.89516 41.7621 5.35163 41.7621 3.44758Z" fill="#2A2A2A"/>
<path d="M20.2186 43.2097V11.9516H20.677C21.233 15.85 24.6574 18.8468 28.6985 18.8468C28.9301 18.8468 29.1594 18.8369 29.3861 18.8176V48.2661C29.3861 49.2816 30.207 50.1048 31.2196 50.1048V52.4032H29.3861C24.323 52.4032 20.2186 48.2871 20.2186 43.2097Z" fill="#2A2A2A"/>
<path d="M34.8865 47.8065V35.8548H35.3449C35.901 39.7532 39.3254 42.75 43.3664 42.75C43.5981 42.75 43.8274 42.7402 44.054 42.7209V52.8629C44.054 53.8784 44.8749 54.7016 45.8875 54.7016V57H44.054C38.991 57 34.8865 52.8839 34.8865 47.8065Z" fill="#2A2A2A"/>
<path fill-rule="evenodd" clip-rule="evenodd" d="M42.4498 15.7492C45.1676 14.0844 48.5693 13.5838 51.8297 14.6635C57.7191 16.6138 60.9169 22.9827 58.9721 28.8889C57.2221 34.2036 51.8897 37.6018 46.6104 36.7769L46.5398 37.2311C52.0547 38.0929 57.5916 34.5474 59.4074 29.0331C61.4315 22.8858 58.1032 16.2569 51.9734 14.227C48.5782 13.1026 45.0355 13.6252 42.207 15.3592C42.119 15.4132 42.0316 15.4683 41.9449 15.5247C38.5979 17.7005 35.6703 21.2096 32.7818 23.9566C31.1239 25.5334 29.4539 27.1216 27.7684 28.6813C22.9436 33.1461 17.9816 37.3874 12.7671 40.5114C10.8267 41.6739 8.41658 42.0238 6.09694 41.2735C1.82225 39.8909 -0.525405 35.2949 0.853309 31.008C2.22672 26.7377 7.06486 24.6239 11.3567 26.012L11.4974 25.5746C6.99892 24.1195 1.87879 26.3219 0.417065 30.8669C-1.03936 35.3954 1.44062 40.2505 5.95624 41.711C8.40669 42.5036 10.9533 42.1335 13.0022 40.906C18.259 37.7567 23.2494 33.4886 28.0793 29.0192C29.7752 27.4498 31.4501 25.8569 33.11 24.2782C36.0205 21.51 39.016 17.8524 42.4498 15.7492Z" fill="#2A2A2A"/>
</svg>
